name Walk3.mot
datacolumns 19
datarows 10
range 1.31100000 1.32000000
endheader

                time	   L_ground_force_vx	   L_ground_force_vy	   L_ground_force_vz	   L_ground_force_px	   L_ground_force_py	   L_ground_force_pz	   R_ground_force_vx	   R_ground_force_vy	   R_ground_force_vz	   R_ground_force_px	   R_ground_force_py	   R_ground_force_pz	   L_ground_torque_x	   L_ground_torque_y	   L_ground_torque_z	   R_ground_torque_x	   R_ground_torque_y	   R_ground_torque_z	
          1.31100000	          0.00000000	          0.00000000	          0.00000000	          0.00000000	          0.00000000	          0.00000000	          0.00000000	          0.00000000	          0.00000000	          0.00000000	          0.00000000	          0.00000000	          0.00000000	          0.00000000	          0.00000000	          0.00000000	          0.00000000	          0.00000000	
          1.31200000	          0.00000000	          0.00000000	          0.00000000	          0.00000000	          0.00000000	          0.00000000	          0.00000000	          0.00000000	          0.00000000	          0.00000000	          0.00000000	          0.00000000	          0.00000000	          0.00000000	          0.00000000	          0.00000000	          0.00000000	          0.00000000	
          1.31300000	          0.00000000	          0.00000000	          0.00000000	          0.00000000	          0.00000000	          0.00000000	         -2.64490595	          9.33676850	         -1.52601367	         -0.35726063	          0.00000000	         -0.02985652	          0.00000000	          0.00000000	          0.00000000	          0.00000000	          0.07542363	          0.00000000	
          1.31400000	          0.00000000	          0.00000000	          0.00000000	          0.00000000	          0.00000000	          0.00000000	         -4.54287238	         18.50767564	         -2.38800124	         -0.35618476	          0.00000000	         -0.03121113	          0.00000000	          0.00000000	          0.00000000	          0.00000000	          0.10608072	          0.00000000	
          1.31500000	          0.00000000	          0.00000000	          0.00000000	          0.00000000	          0.00000000	          0.00000000	         -6.73206284	         31.44155338	         -3.20309294	         -0.35521723	          0.00000000	         -0.03234425	          0.00000000	          0.00000000	          0.00000000	          0.00000000	          0.13261065	          0.00000000	
          1.31600000	          0.00000000	          0.00000000	          0.00000000	          0.00000000	          0.00000000	          0.00000000	         -9.03348403	         48.76687194	         -3.83519140	         -0.35447576	          0.00000000	         -0.03336901	          0.00000000	          0.00000000	          0.00000000	          0.00000000	          0.15339896	          0.00000000	
          1.31700000	          0.00000000	          0.00000000	          0.00000000	          0.00000000	          0.00000000	          0.00000000	        -11.24137925	         70.91745730	         -4.20620488	         -0.35402774	          0.00000000	         -0.03398457	          0.00000000	          0.00000000	          0.00000000	          0.00000000	          0.16947137	          0.00000000	
          1.31800000	          0.00000000	          0.00000000	          0.00000000	          0.00000000	          0.00000000	          0.00000000	        -13.11689655	         97.64837833	         -4.33105834	         -0.35379784	          0.00000000	         -0.03392519	          0.00000000	          0.00000000	          0.00000000	          0.00000000	          0.18805451	          0.00000000	
          1.31900000	          0.00000000	          0.00000000	          0.00000000	          0.00000000	          0.00000000	          0.00000000	        -14.40782776	        127.65690548	         -4.33481649	         -0.35363289	          0.00000000	         -0.03336845	          0.00000000	          0.00000000	          0.00000000	          0.00000000	          0.21754720	          0.00000000	
          1.32000000	          0.00000000	          0.00000000	          0.00000000	          0.00000000	          0.00000000	          0.00000000	        -14.93539857	        158.71074432	         -4.42905459	         -0.35343674	          0.00000000	         -0.03271579	          0.00000000	          0.00000000	          0.00000000	          0.00000000	          0.25717104	          0.00000000	
